<svg width="150" height="150" viewBox="0 0 150 150" fill="none" xmlns="http://www.w3.org/2000/svg">
<rect width="150" height="150" fill="white"/>
<path fill-rule="evenodd" clip-rule="evenodd" d="M33.6813 90.125C32.8078 87.7389 32.144 85.2851 31.6954 82.7917H54.426C54.5056 83.0019 54.5885 83.211 54.6747 83.419C55.7034 85.9027 57.178 88.1752 59.0239 90.125H33.6813ZM35.2147 93.7917C36.4351 96.3755 37.9028 98.8312 39.5954 101.125H75V97C72.1109 97 69.2501 96.431 66.581 95.3253C65.5336 94.8915 64.5239 94.3784 63.56 93.7917H35.2147ZM43.8873 106.113C43.4554 105.681 43.0329 105.24 42.6201 104.792H75L75 112.125H51.3836C48.6792 110.405 46.1645 108.39 43.8873 106.113ZM58.5063 115.792C63.746 117.91 69.3459 119 75 119V115.792H58.5063ZM53.3902 79.125H31.1938C31.0649 77.7562 31 76.3797 31 75C31 73.9279 31.0392 72.8578 31.1171 71.7917H53.2352C53.079 72.8516 53 73.9238 53 75C53 76.3876 53.1313 77.7686 53.3902 79.125ZM54.1018 68.125C54.2732 67.6041 54.4642 67.0891 54.6746 66.581C55.5461 64.4771 56.7375 62.5247 58.2035 60.7917H33.3572C32.5417 63.1819 31.9343 65.6355 31.5404 68.125H54.1018ZM62.1749 57.125H34.7945C35.9397 54.5491 37.3277 52.0939 38.937 49.7917H64.5584L66.581 54.6747C65.0196 55.3214 63.5416 56.1444 62.1749 57.125ZM64.5584 49.7917H75V53C72.1109 53 69.2501 53.569 66.581 54.6746L64.5584 49.7917ZM75 46.125V38.7917H50.0009C47.8185 40.2984 45.7716 42.003 43.8873 43.8873C43.1648 44.6098 42.4687 45.3562 41.8001 46.125H63.0396H75ZM75 35.125H56.3993C56.9806 34.8539 57.5682 34.5952 58.1619 34.3493C63.5002 32.1381 69.2218 31 75 31V35.125Z" fill="black"/>
<path fill-rule="evenodd" clip-rule="evenodd" d="M75 41.5416V38.7917H99.9991C101.236 39.6458 102.43 40.5636 103.575 41.5416H75ZM75 50.7083L75 53C76.5044 53 78.0012 53.1543 79.4672 53.4583H113.366C112.84 52.5211 112.28 51.6038 111.687 50.7083H75ZM94.7828 65.375C94.3182 64.42 93.7855 63.501 93.1895 62.625H117.224C117.49 63.5342 117.727 64.4513 117.934 65.375H94.7828ZM96.9952 74.5416C96.9984 74.6943 97 74.8471 97 75C97 75.7669 96.9599 76.5318 96.8803 77.2916H118.94C118.98 76.5293 119 75.7651 119 75C119 74.8472 118.999 74.6944 118.998 74.5416H96.9952ZM91.7965 89.2083C92.5281 88.3435 93.1913 87.424 93.7805 86.4583H117.482C117.232 87.3831 116.953 88.3003 116.643 89.2083H91.7965ZM75 98.375H84.6822H112.277C111.688 99.3149 111.063 100.232 110.405 101.125H75V98.375ZM75 110.292H101.277C99.9414 111.286 98.5499 112.205 97.1096 113.042H75V110.292Z" fill="black"/>
</svg>
